<?xml version="1.0" encoding="UTF-8" standalone="no"?><svg xmlns="http://www.w3.org/2000/svg" xmlns:xlink="http://www.w3.org/1999/xlink" contentScriptType="application/ecmascript" contentStyleType="text/css" height="261px" preserveAspectRatio="none" style="width:565px;height:261px;" version="1.1" viewBox="0 0 565 261" width="565px" zoomAndPan="magnify"><defs><filter height="300%" id="f1cy7sguo7tkm6" width="300%" x="-1" y="-1"><feGaussianBlur result="blurOut" stdDeviation="2.0"/><feColorMatrix in="blurOut" result="blurOut2" type="matrix" values="0 0 0 0 0 0 0 0 0 0 0 0 0 0 0 0 0 0 .4 0"/><feOffset dx="4.0" dy="4.0" in="blurOut2" result="blurOut3"/><feBlend in="SourceGraphic" in2="blurOut3" mode="normal"/></filter></defs><g><!--cluster Online Food shop menu management subsystem--><rect fill="#FFFFFF" filter="url(#f1cy7sguo7tkm6)" height="217" style="stroke: #000000; stroke-width: 1.5;" width="357" x="111" y="24"/><text fill="#000000" font-family="sans-serif" font-size="14" font-weight="bold" lengthAdjust="spacingAndGlyphs" textLength="341" x="119" y="40.5332">Online Food shop menu management subsystem</text><ellipse cx="289.1311" cy="76.0262" fill="#6495ED" filter="url(#f1cy7sguo7tkm6)" rx="68.1311" ry="16.0262" style="stroke: #A80036; stroke-width: 1.5;"/><text fill="#F0FFFF" font-family="sans-serif" font-size="14" lengthAdjust="spacingAndGlyphs" textLength="96" x="241.1311" y="81.3309">Add food menu</text><ellipse cx="288.8762" cy="142.9517" fill="#6495ED" filter="url(#f1cy7sguo7tkm6)" rx="50.3762" ry="15.4517" style="stroke: #A80036; stroke-width: 1.5;"/><text fill="#F0FFFF" font-family="sans-serif" font-size="14" lengthAdjust="spacingAndGlyphs" textLength="67" x="255.3762" y="148.2564">Edid menu</text><ellipse cx="289.0833" cy="208.9517" fill="#6495ED" filter="url(#f1cy7sguo7tkm6)" rx="51.0833" ry="15.4517" style="stroke: #A80036; stroke-width: 1.5;"/><text fill="#F0FFFF" font-family="sans-serif" font-size="14" lengthAdjust="spacingAndGlyphs" textLength="68" x="255.0833" y="214.2564">View menu</text><!--entity Customer--><ellipse cx="36.5" cy="176.5" fill="#FEFECE" filter="url(#f1cy7sguo7tkm6)" rx="8" ry="8" style="stroke: #A80036; stroke-width: 2.0;"/><path d="M36.5,184.5 L36.5,211.5 M23.5,192.5 L49.5,192.5 M36.5,211.5 L23.5,226.5 M36.5,211.5 L49.5,226.5 " fill="none" filter="url(#f1cy7sguo7tkm6)" style="stroke: #A80036; stroke-width: 2.0;"/><text fill="#000000" font-family="sans-serif" font-size="14" lengthAdjust="spacingAndGlyphs" textLength="61" x="6" y="248.0332">Customer</text><!--entity Owner--><ellipse cx="532.5" cy="110.5" fill="#FEFECE" filter="url(#f1cy7sguo7tkm6)" rx="8" ry="8" style="stroke: #A80036; stroke-width: 2.0;"/><path d="M532.5,118.5 L532.5,145.5 M519.5,126.5 L545.5,126.5 M532.5,145.5 L519.5,160.5 M532.5,145.5 L545.5,160.5 " fill="none" filter="url(#f1cy7sguo7tkm6)" style="stroke: #A80036; stroke-width: 2.0;"/><text fill="#000000" font-family="sans-serif" font-size="14" lengthAdjust="spacingAndGlyphs" textLength="41" x="512" y="182.0332">Owner</text><!--link Add food menu to Owner--><path d="M352.634,81.827 C389.428,86.62 436.347,95.137 476,110 C488.596,114.721 501.578,122.267 511.817,128.953 " fill="none" id="Add food menu-Owner" style="stroke: #A80036; stroke-width: 1.0;"/><!--link Edid menu to Owner--><path d="M339.746,143 C392.906,143 474.543,143 511.771,143 " fill="none" id="Edid menu-Owner" style="stroke: #A80036; stroke-width: 1.0;"/><!--link Customer to View menu--><path d="M67.2193,209 C109.21,209 186.468,209 237.543,209 " fill="none" id="Customer-View menu" style="stroke: #A80036; stroke-width: 1.0;"/><!--link View menu to Owner--><path d="M338.654,205.2014 C376.934,201.0755 431.12,192.6889 476,176 C488.608,171.3114 501.591,163.7674 511.827,157.0751 " fill="none" id="View menu-Owner" style="stroke: #A80036; stroke-width: 1.0;"/><!--
@startuml foodshop-diagram-2
left to right direction
skinparam usecase{
    BackgroundColor CornflowerBlue
    FontColor Azure
}
:Customer: as Customer
:Owner: as Owner 
rectangle "Online Food shop menu management subsystem"{
(Add food menu)- -Owner
(Edid menu)- -Owner
Customer- -(View menu)
(View menu)- -Owner
}
@enduml

PlantUML version 1.2019.09(Mon Aug 26 23:19:51 ICT 2019)
(GPL source distribution)
Java Runtime: Java(TM) SE Runtime Environment
JVM: Java HotSpot(TM) 64-Bit Server VM
Java Version: 1.8.0_191-b12
Operating System: Windows 10
OS Version: 10.0
Default Encoding: MS874
Language: en
Country: US
--></g></svg>