<?xml version="1.0" encoding="UTF-8" standalone="no"?><svg xmlns="http://www.w3.org/2000/svg" xmlns:xlink="http://www.w3.org/1999/xlink" contentScriptType="application/ecmascript" contentStyleType="text/css" height="459px" preserveAspectRatio="none" style="width:457px;height:459px;" version="1.1" viewBox="0 0 457 459" width="457px" zoomAndPan="magnify"><defs><filter height="300%" id="flcivf53ncfc2" width="300%" x="-1" y="-1"><feGaussianBlur result="blurOut" stdDeviation="2.0"/><feColorMatrix in="blurOut" result="blurOut2" type="matrix" values="0 0 0 0 0 0 0 0 0 0 0 0 0 0 0 0 0 0 .4 0"/><feOffset dx="4.0" dy="4.0" in="blurOut2" result="blurOut3"/><feBlend in="SourceGraphic" in2="blurOut3" mode="normal"/></filter></defs><g><!--cluster Truck rental company--><rect fill="#FFFFFF" filter="url(#flcivf53ncfc2)" height="424" style="stroke: #000000; stroke-width: 1.5;" width="193" x="112" y="24"/><text fill="#000000" font-family="sans-serif" font-size="14" font-weight="bold" lengthAdjust="spacingAndGlyphs" textLength="150" x="133.5" y="40.5332">Truck rental company</text><ellipse cx="208.7487" cy="75.9517" fill="#6495ED" filter="url(#flcivf53ncfc2)" rx="27.7487" ry="15.4517" style="stroke: #A80036; stroke-width: 1.5;"/><text fill="#F0FFFF" font-family="sans-serif" font-size="14" lengthAdjust="spacingAndGlyphs" textLength="35" x="191.2487" y="81.2564">Login</text><ellipse cx="208.6792" cy="145.0358" fill="#6495ED" filter="url(#flcivf53ncfc2)" rx="80.6792" ry="18.5358" style="stroke: #A80036; stroke-width: 1.5;"/><text fill="#F0FFFF" font-family="sans-serif" font-size="14" lengthAdjust="spacingAndGlyphs" textLength="128" x="144.6792" y="150.3405">Manage/n employee</text><ellipse cx="208.5183" cy="213.9517" fill="#6495ED" filter="url(#flcivf53ncfc2)" rx="64.5183" ry="15.4517" style="stroke: #A80036; stroke-width: 1.5;"/><text fill="#F0FFFF" font-family="sans-serif" font-size="14" lengthAdjust="spacingAndGlyphs" textLength="87" x="165.0183" y="219.2564">Rent Truck(s)</text><ellipse cx="208.449" cy="282.0898" fill="#6495ED" filter="url(#flcivf53ncfc2)" rx="73.449" ry="17.0898" style="stroke: #A80036; stroke-width: 1.5;"/><text fill="#F0FFFF" font-family="sans-serif" font-size="14" lengthAdjust="spacingAndGlyphs" textLength="110" x="153.449" y="287.3945">Mange Truck Info</text><ellipse cx="208.5183" cy="349.9517" fill="#6495ED" filter="url(#flcivf53ncfc2)" rx="64.5183" ry="15.4517" style="stroke: #A80036; stroke-width: 1.5;"/><text fill="#F0FFFF" font-family="sans-serif" font-size="14" lengthAdjust="spacingAndGlyphs" textLength="87" x="165.0183" y="355.2564">Release truck</text><ellipse cx="208.3112" cy="416.1622" fill="#6495ED" filter="url(#flcivf53ncfc2)" rx="66.3112" ry="15.6622" style="stroke: #A80036; stroke-width: 1.5;"/><text fill="#F0FFFF" font-family="sans-serif" font-size="14" lengthAdjust="spacingAndGlyphs" textLength="91" x="162.8112" y="421.4669">Invoice mange</text><!--entity Admin--><ellipse cx="397" cy="112.5" fill="#FEFECE" filter="url(#flcivf53ncfc2)" rx="8" ry="8" style="stroke: #A80036; stroke-width: 2.0;"/><path d="M397,120.5 L397,147.5 M384,128.5 L410,128.5 M397,147.5 L384,162.5 M397,147.5 L410,162.5 " fill="none" filter="url(#flcivf53ncfc2)" style="stroke: #A80036; stroke-width: 2.0;"/><text fill="#000000" font-family="sans-serif" font-size="14" lengthAdjust="spacingAndGlyphs" textLength="39" x="377.5" y="184.0332">Admin</text><!--entity Employee--><ellipse cx="37" cy="112.5" fill="#FEFECE" filter="url(#flcivf53ncfc2)" rx="8" ry="8" style="stroke: #A80036; stroke-width: 2.0;"/><path d="M37,120.5 L37,147.5 M24,128.5 L50,128.5 M37,147.5 L24,162.5 M37,147.5 L50,162.5 " fill="none" filter="url(#flcivf53ncfc2)" style="stroke: #A80036; stroke-width: 2.0;"/><text fill="#000000" font-family="sans-serif" font-size="14" lengthAdjust="spacingAndGlyphs" textLength="62" x="6" y="184.0332">Employee</text><!--entity truckManager--><ellipse cx="397" cy="317.5" fill="#FEFECE" filter="url(#flcivf53ncfc2)" rx="8" ry="8" style="stroke: #A80036; stroke-width: 2.0;"/><path d="M397,325.5 L397,352.5 M384,333.5 L410,333.5 M397,352.5 L384,367.5 M397,352.5 L410,367.5 " fill="none" filter="url(#flcivf53ncfc2)" style="stroke: #A80036; stroke-width: 2.0;"/><text fill="#000000" font-family="sans-serif" font-size="14" lengthAdjust="spacingAndGlyphs" textLength="96" x="349" y="389.0332">Truck Manager</text><!--link Employee to Login--><path d="M68.2858,126.904 C79.3026,120.746 91.9987,114.131 104,109 C130.359,97.731 161.905,88.21 183.185,82.334 " fill="none" id="Employee-Login" style="stroke: #A80036; stroke-width: 1.0;"/><!--link Manage/n employee to Admin--><path d="M289.134,145 C321.805,145 356.756,145 377.475,145 " fill="none" id="Manage/n employee-Admin" style="stroke: #A80036; stroke-width: 1.0;"/><!--link Employee to rentTruck--><path d="M68.2858,163.096 C79.3026,169.254 91.9987,175.869 104,181 C123.596,189.378 146.058,196.789 165.039,202.455 " fill="none" id="Employee-rentTruck" style="stroke: #A80036; stroke-width: 1.0;"/><!--link Mange Truck Info to truckManager--><path d="M251.975,295.807 C270.757,302.055 293.06,309.67 313,317 C324.644,321.28 337.116,326.108 348.761,330.723 " fill="none" id="Mange Truck Info-truckManager" style="stroke: #A80036; stroke-width: 1.0;"/><!--link Release truck to truckManager--><path d="M273.161,350 C297.959,350 325.871,350 348.815,350 " fill="none" id="Release truck-truckManager" style="stroke: #A80036; stroke-width: 1.0;"/><!--link Invoice mange to truckManager--><path d="M250.024,403.7979 C269.219,397.8353 292.401,390.3688 313,383 C324.681,378.8216 337.166,374.032 348.813,369.4213 " fill="none" id="Invoice mange-truckManager" style="stroke: #A80036; stroke-width: 1.0;"/><!--
@startuml Truck rental company
left to right direction
skinparam usecase{
    BackgroundColor CornflowerBlue
    FontColor Azure
}
actor Admin
actor Employee
actor "Truck Manager" as truckManager

rectangle "Truck rental company"{
Employee- -(Login)
(Manage/n employee)- -Admin
usecase "Rent Truck(s)" as rentTruck
Employee- -rentTruck
(Mange Truck Info)- -truckManager
(Release truck)- -truckManager
(Invoice mange)- -truckManager
}
@enduml

PlantUML version 1.2019.09(Mon Aug 26 23:19:51 ICT 2019)
(GPL source distribution)
Java Runtime: Java(TM) SE Runtime Environment
JVM: Java HotSpot(TM) 64-Bit Server VM
Java Version: 1.8.0_191-b12
Operating System: Windows 10
OS Version: 10.0
Default Encoding: MS874
Language: en
Country: US
--></g></svg>