<?xml version="1.0" encoding="UTF-8" standalone="no"?><svg xmlns="http://www.w3.org/2000/svg" xmlns:xlink="http://www.w3.org/1999/xlink" contentScriptType="application/ecmascript" contentStyleType="text/css" height="409px" preserveAspectRatio="none" style="width:416px;height:409px;" version="1.1" viewBox="0 0 416 409" width="416px" zoomAndPan="magnify"><defs><filter height="300%" id="fryh0f2yvd6o5" width="300%" x="-1" y="-1"><feGaussianBlur result="blurOut" stdDeviation="2.0"/><feColorMatrix in="blurOut" result="blurOut2" type="matrix" values="0 0 0 0 0 0 0 0 0 0 0 0 0 0 0 0 0 0 .4 0"/><feOffset dx="4.0" dy="4.0" in="blurOut2" result="blurOut3"/><feBlend in="SourceGraphic" in2="blurOut3" mode="normal"/></filter></defs><g><!--cluster Online Food shop overview--><rect fill="#FFFFFF" filter="url(#fryh0f2yvd6o5)" height="374" style="stroke: #000000; stroke-width: 1.5;" width="211" x="108" y="24"/><text fill="#000000" font-family="sans-serif" font-size="14" font-weight="bold" lengthAdjust="spacingAndGlyphs" textLength="195" x="116" y="40.5332">Online Food shop overview</text><ellipse cx="212.7518" cy="77.0504" fill="#6495ED" filter="url(#fryh0f2yvd6o5)" rx="70.7518" ry="16.5504" style="stroke: #A80036; stroke-width: 1.5;"/><text fill="#F0FFFF" font-family="sans-serif" font-size="14" lengthAdjust="spacingAndGlyphs" textLength="103" x="161.2518" y="82.3551">member register</text><ellipse cx="213.2487" cy="143.9517" fill="#6495ED" filter="url(#fryh0f2yvd6o5)" rx="27.7487" ry="15.4517" style="stroke: #A80036; stroke-width: 1.5;"/><text fill="#F0FFFF" font-family="sans-serif" font-size="14" lengthAdjust="spacingAndGlyphs" textLength="35" x="195.7487" y="149.2564">Login</text><ellipse cx="212.8577" cy="221.8911" fill="#6495ED" filter="url(#fryh0f2yvd6o5)" rx="34.8577" ry="27.3911" style="stroke: #A80036; stroke-width: 1.5;"/><text fill="#F0FFFF" font-family="sans-serif" font-size="14" lengthAdjust="spacingAndGlyphs" textLength="46" x="189.8577" y="219.1234">Mamge</text><text fill="#F0FFFF" font-family="sans-serif" font-size="14" lengthAdjust="spacingAndGlyphs" textLength="42" x="191.8577" y="236.7328">Goods</text><ellipse cx="212.9117" cy="299.9517" fill="#6495ED" filter="url(#fryh0f2yvd6o5)" rx="53.9117" ry="15.4517" style="stroke: #A80036; stroke-width: 1.5;"/><text fill="#F0FFFF" font-family="sans-serif" font-size="14" lengthAdjust="spacingAndGlyphs" textLength="72" x="176.9117" y="305.2564">Make order</text><ellipse cx="213.1335" cy="365.9517" fill="#6495ED" filter="url(#fryh0f2yvd6o5)" rx="46.1335" ry="15.4517" style="stroke: #A80036; stroke-width: 1.5;"/><text fill="#F0FFFF" font-family="sans-serif" font-size="14" lengthAdjust="spacingAndGlyphs" textLength="61" x="182.6335" y="371.2564">Print slips</text><!--entity customer--><ellipse cx="35" cy="111.5" fill="#FEFECE" filter="url(#fryh0f2yvd6o5)" rx="8" ry="8" style="stroke: #A80036; stroke-width: 2.0;"/><path d="M35,119.5 L35,146.5 M22,127.5 L48,127.5 M35,146.5 L22,161.5 M35,146.5 L48,161.5 " fill="none" filter="url(#fryh0f2yvd6o5)" style="stroke: #A80036; stroke-width: 2.0;"/><text fill="#000000" font-family="sans-serif" font-size="14" lengthAdjust="spacingAndGlyphs" textLength="58" x="6" y="183.0332">customer</text><!--entity Owner--><ellipse cx="383.5" cy="189.5" fill="#FEFECE" filter="url(#fryh0f2yvd6o5)" rx="8" ry="8" style="stroke: #A80036; stroke-width: 2.0;"/><path d="M383.5,197.5 L383.5,224.5 M370.5,205.5 L396.5,205.5 M383.5,224.5 L370.5,239.5 M383.5,224.5 L396.5,239.5 " fill="none" filter="url(#fryh0f2yvd6o5)" style="stroke: #A80036; stroke-width: 2.0;"/><text fill="#000000" font-family="sans-serif" font-size="14" lengthAdjust="spacingAndGlyphs" textLength="41" x="363" y="261.0332">Owner</text><!--link customer to member register--><path d="M64.1528,128.083 C75.131,122.25 87.9524,115.888 100,111 C120.901,102.521 144.734,95.002 165.026,89.206 " fill="none" id="customer-member register" style="stroke: #A80036; stroke-width: 1.0;"/><!--link customer to Login--><path d="M64.2774,144 C97.6068,144 152.577,144 185.235,144 " fill="none" id="customer-Login" style="stroke: #A80036; stroke-width: 1.0;"/><!--link Login to Owner--><path d="M239.786,148.49 C263.435,153.3 298.941,162.295 327,177 C339.965,183.795 352.77,193.886 362.807,202.792 " fill="none" id="Login-Owner" style="stroke: #A80036; stroke-width: 1.0;"/><!--link Mamge\n Goods to Owner--><path d="M248.098,222 C282.525,222 334.518,222 362.681,222 " fill="none" id="Mamge\n Goods-Owner" style="stroke: #A80036; stroke-width: 1.0;"/><!--link customer to Make order--><path d="M48.563,186.617 C58.4857,213.269 74.9115,246.345 100,267 C117.684,281.559 141.578,289.695 162.755,294.241 " fill="none" id="customer-Make order" style="stroke: #A80036; stroke-width: 1.0;"/><!--link Print slips to Owner--><path d="M257.355,361.7316 C280.207,357.5578 307.468,349.3069 327,333 C348.087,315.3948 361.937,287.792 370.527,264.518 " fill="none" id="Print slips-Owner" style="stroke: #A80036; stroke-width: 1.0;"/><!--
@startuml foodshop-diagram-1
left to right direction
skinparam usecase{
    BackgroundColor CornflowerBlue
    FontColor Azure
}
:customer: as customer
:Owner: as Owner
rectangle "Online Food shop overview"{
customer- -(member register)
 
customer- -(Login)
(Login)- -Owner
(Mamge\n Goods)- -Owner
customer- -(Make order)
(Print slips)- -Owner

}

@enduml

PlantUML version 1.2019.09(Mon Aug 26 23:19:51 ICT 2019)
(GPL source distribution)
Java Runtime: Java(TM) SE Runtime Environment
JVM: Java HotSpot(TM) 64-Bit Server VM
Java Version: 1.8.0_191-b12
Operating System: Windows 10
OS Version: 10.0
Default Encoding: MS874
Language: en
Country: US
--></g></svg>